<svg xmlns="http://www.w3.org/2000/svg" width="64" height="64" fill="none"><path fill="#fff" stroke="#000" stroke-miterlimit="10" d="M14.063.614h35.876c7.427 0 13.448 6.021 13.448 13.449v35.876c0 7.427-6.02 13.448-13.448 13.448H14.063c-7.428 0-13.45-6.02-13.45-13.448V14.063c0-7.428 6.022-13.45 13.45-13.45Z"/><path fill="#FF334C" d="M15.014 21.923a5.83 5.83 0 0 0 11.489 1.403 5.825 5.825 0 0 0 11.311 0 5.829 5.829 0 0 0 11.484-1.403v-4.816H15.014v4.816Z"/><path fill="#000" d="M25.145 40.881v6.688H22.01v-6.148c0-1.295-.753-2.215-1.986-2.215-1.232 0-2.237.982-2.237 2.34v6.02h-3.135V36.862h3.052v1.442a4.045 4.045 0 0 1 3.385-1.86c2.425 0 4.056 1.86 4.056 4.437Zm20.481-4.018-2.212 2.968-2.154-2.968h-3.564l3.903 5.211-4.221 5.526h3.467l2.487-3.366 2.406 3.366h3.61l-4.241-5.608 3.9-5.129h-3.381Z"/><path fill="#000" d="M37.827 42.172c0-3.386-2.34-5.73-5.77-5.73-3.448 0-5.894 2.34-5.894 5.685 0 3.449 2.446 5.853 5.895 5.853 2.529 0 4.723-1.355 5.288-3.22l-2.738-.606c-.377.815-1.338 1.422-2.467 1.422-1.421 0-2.466-.983-2.737-2.488l8.38.021c.036-.31.05-.624.043-.937Zm-5.836-3.324c1.34 0 2.334.895 2.605 2.136H29.44c.331-1.292 1.254-2.136 2.556-2.136h-.004Z"/></svg>